<svg version="1.0" id="prefix__katman_1" xmlns="http://www.w3.org/2000/svg" x="0" y="0" viewBox="0 0 1190.55 841.89" xml:space="preserve"><style>.prefix__st0,.prefix__st1{enable-background:new}.prefix__st0{opacity:.7;fill:#e84031}.prefix__st1{opacity:.5}.prefix__st1,.prefix__st2{fill:#e84031}</style><path class="prefix__st0" d="M824.58 393.61v116.13h-38.17v-96.3l38.17-19.83zM313.77 512.66l89.19-46.64-11-28.48-58.72 27.38-19.47 47.74z"/><path class="prefix__st1" d="M786.42 413.34l96.77-49.52-16.35-27.65-80.42 39.3v37.87z"/><path class="prefix__st0" d="M513.89 384.42v125.32h-36.4V331.26l36.4 53.16z"/><path class="prefix__st1" d="M368.93 377.49l-55.15 135.17-28.37-24.42 65.71-156.98 17.81 46.23z"/><path class="prefix__st2" d="M351.12 331.26h37.6l69.54 178.48h-38.49l-68.65-178.48zM519.52 331.26l80.16 121.94v56.54L477.49 331.26h42.03zM706.22 331.26h-37.88v178.51h37.88V331.26zM786.42 363.82H728.1v-32.56h135.82l19.26 32.56H786.42z"/><path class="prefix__st1" d="M995.03 442.01v67.72h-37.6v-67.72"/><path class="prefix__st2" d="M957.43 442.01l63.62-110.75H1061l-65.97 110.75h-37.6z"/><path class="prefix__st0" d="M957.43 442.01l-65.4-110.75h41.14l44.3 75.9-20.04 34.85z"/><path class="prefix__st2" d="M144.27 351.86c0 24.85 15.62 39.64 46.9 47.44l33.14 7.55c29.6 6.68 47.62 23.27 47.62 50.3.23 11.77-3.67 23.27-11.04 32.56 0-26.97-14.2-41.54-48.45-50.3l-32.54-7.27c-26.06-5.84-46.17-19.48-46.17-48.84-.12-11.34 3.58-22.4 10.54-31.44"/><path class="prefix__st0" d="M599.68 444.03V331.26h36.4v178.48h-36.4v-65.71zM240.54 450.53c14.13 8.88 20.33 21.31 20.33 39.14-11.7 14.72-32.26 22.99-56.42 22.99-40.67 0-69.13-19.67-75.45-53.84h39.05c5.03 15.69 18.34 22.96 36.11 22.96 21.69 0 36.11-11.37 36.4-31.32M164.58 388.7c-6.45-3.77-11.75-9.18-15.33-15.67a40.374 40.374 0 01-4.98-21.17c11.29-14.6 30.93-23.52 54.87-23.52 41.43 0 65.4 21.5 71.31 51.76h-37.57c-4.14-11.93-14.52-21.22-33.43-21.22-20.21 0-33.99 11.56-34.79 29.82"/></svg>