<svg version="1.0" xmlns="http://www.w3.org/2000/svg" viewBox="0 0 600 450"><path d="M350.8 238.7l-30.6-39.5h-7.6v53h7.7v-40.6l31.5 40.6h6.8v-53h-7.7v39.5zm-77.1-9.9h27.4V222h-27.5v-16h31v-6.9h-38.9v53H305v-6.9h-31.4l.1-16.4zm-32.2-6.7c-10.7-2.6-13.7-4.6-13.7-9.5 0-4.4 3.9-7.4 9.8-7.4 5.3.2 10.5 2 14.7 5.3l4.1-5.9c-5.3-4.2-11.9-6.4-18.7-6.2-10.5 0-17.8 6.2-17.8 15.1 0 9.5 6.2 12.8 17.6 15.6 10.1 2.3 13.2 4.5 13.2 9.3 0 4.8-4.1 7.8-10.6 7.8-6.4 0-12.5-2.4-17.2-6.8l-4.7 5.6c6 5.2 13.7 8 21.6 8 11.4 0 18.7-6.1 18.7-15.6-.1-8-4.8-12.3-17-15.3zm257.4-23L483 224l-15.9-24.9h-9.3l20.9 32.1v21h8V231l21.1-31.8h-8.9zm-134 7.2h17.4v45.8h8v-45.8h17.4v-7.2H365l-.1 7.2zm79.5 25.2c8-2.2 12.4-7.8 12.4-15.8 0-10.2-7.4-16.6-19.5-16.6h-23.6v53.1h7.9v-19H435l13.4 19.1h9.2l-14.5-20.4 1.3-.4zm-22.7-5.2v-20.1h14.9c7.8 0 12.2 3.7 12.2 10 0 6.4-4.8 10.1-12.1 10.1h-15zm-268.6-41.6c-2.8-4.6-8.7-6.1-13.3-3.3-1.4.8-2.5 1.9-3.3 3.3l-13.7 23.4c21.2 10.6 35.2 31.6 36.8 55.3H150c-1.6-20.3-13.8-38.2-32.1-47.1l-12.6 21.8c10.3 4.6 17.5 14.1 19.1 25.2h-22c-.9-.1-1.5-.8-1.5-1.7 0-.2.1-.4.2-.6l6.1-10.4c-2.1-1.7-4.4-3.1-7-3.9l-6 10.4c-2.6 4.5-1.1 10.3 3.4 12.9 0 0 .1 0 .1.1 1.4.8 3 1.2 4.7 1.2h30.1c1.1-14.1-5.2-27.7-16.6-35.9l4.8-8.3c14.4 9.9 22.6 26.7 21.4 44.2h25.5c1.2-26.5-11.8-51.6-34-66l9.7-16.6c.4-.8 1.4-1 2.2-.6 1.1.6 42.1 72.1 42.9 73 .4.8.2 1.7-.6 2.1-.2.1-.5.2-.8.2h-9.9c.1 2.6.1 5.3 0 7.9h9.9c5.3 0 9.6-4.2 9.6-9.5v-.1c0-1.7-.4-3.3-1.3-4.7l-42.2-72.3z" fill="#010202"/></svg>