<?xml version="1.0" encoding="utf-8"?>
<!-- Generator: Adobe Illustrator 26.0.3, SVG Export Plug-In . SVG Version: 6.00 Build 0)  -->
<svg version="1.0" id="katman_1" xmlns="http://www.w3.org/2000/svg" xmlns:xlink="http://www.w3.org/1999/xlink" x="0px" y="0px"
	 viewBox="0 0 600 450" style="enable-background:new 0 0 600 450;" xml:space="preserve">
<style type="text/css">
	.st0{fill:#010202;}
</style>
<path class="st0" d="M350.8,238.7l-30.6-39.5h-7.6v53h7.7v-40.6l31.5,40.6h6.8v-53h-7.7V238.7z M273.7,228.8h27.4V222h-27.5v-16h31
	v-6.9h-38.9v53h39.3v-6.9h-31.4L273.7,228.8z M241.5,222.1L241.5,222.1c-10.7-2.6-13.7-4.6-13.7-9.5c0-4.4,3.9-7.4,9.8-7.4
	c5.3,0.2,10.5,2,14.7,5.3l4.1-5.9c-5.3-4.2-11.9-6.4-18.7-6.2c-10.5,0-17.8,6.2-17.8,15.1c0,9.5,6.2,12.8,17.6,15.6
	c10.1,2.3,13.2,4.5,13.2,9.3c0,4.8-4.1,7.8-10.6,7.8c-6.4,0-12.5-2.4-17.2-6.8l-4.7,5.6c6,5.2,13.7,8,21.6,8
	c11.4,0,18.7-6.1,18.7-15.6C258.4,229.4,253.7,225.1,241.5,222.1z M498.9,199.1L483,224l-15.9-24.9h-9.3l20.9,32.1v21h8v-21.2
	l21.1-31.8H498.9z M364.9,206.3h17.4v45.8h8v-45.8h17.4v-7.2h-42.7L364.9,206.3z M444.4,231.5c8-2.2,12.4-7.8,12.4-15.8
	c0-10.2-7.4-16.6-19.5-16.6h-23.6v53.1h7.9v-19h13.4l13.4,19.1h9.2l-14.5-20.4L444.4,231.5z M421.7,226.3v-20.1h14.9
	c7.8,0,12.2,3.7,12.2,10c0,6.4-4.8,10.1-12.1,10.1H421.7z M153.1,184.7c-2.8-4.6-8.7-6.1-13.3-3.3c-1.4,0.8-2.5,1.9-3.3,3.3
	l-13.7,23.4c21.2,10.6,35.2,31.6,36.8,55.3h-9.6c-1.6-20.3-13.8-38.2-32.1-47.1l-12.6,21.8c10.3,4.6,17.5,14.1,19.1,25.2h-22
	c-0.9-0.1-1.5-0.8-1.5-1.7c0-0.2,0.1-0.4,0.2-0.6l6.1-10.4c-2.1-1.7-4.4-3.1-7-3.9l-6,10.4c-2.6,4.5-1.1,10.3,3.4,12.9
	c0,0,0.1,0,0.1,0.1c1.4,0.8,3,1.2,4.7,1.2h30.1c1.1-14.1-5.2-27.7-16.6-35.9l4.8-8.3c14.4,9.9,22.6,26.7,21.4,44.2h25.5
	c1.2-26.5-11.8-51.6-34-66l9.7-16.6c0.4-0.8,1.4-1,2.2-0.6c1.1,0.6,42.1,72.1,42.9,73c0.4,0.8,0.2,1.7-0.6,2.1
	c-0.2,0.1-0.5,0.2-0.8,0.2h-9.9c0.1,2.6,0.1,5.3,0,7.9h9.9c5.3,0,9.6-4.2,9.6-9.5c0,0,0-0.1,0-0.1c0-1.7-0.4-3.3-1.3-4.7
	L153.1,184.7z"/>
</svg>
