<svg version="1.0" id="prefix__katman_1" xmlns="http://www.w3.org/2000/svg" xmlns:xlink="http://www.w3.org/1999/xlink" x="0" y="0" viewBox="0 0 800 600" xml:space="preserve"><style></style><path d="M378.3 253c-5.7 0-10.4 4.6-10.4 10.5 0 5.8 4.7 10.4 10.4 10.4s10.4-4.6 10.4-10.4c0-5.9-4.7-10.5-10.4-10.5zm9.1 26.2h-18.1v62.2h18.1v-62.2zm-123.9-23.9h17.7v23.9h13.6v16.6h-13.6v21.9c0 3.2 2.5 5.8 5.6 5.8h7.9v17.7h-7.9c-12.8 0-23.3-10.5-23.3-23.6v-21.9h-8.2V279h8.2v-23.7zm74.4 22.5c-8.2 0-14.7 3.5-17.2 8.9v-31.4h-18.1v86h18.1v-34.9c0-7.3 4.7-12.4 11.3-12.4 6.7 0 10.5 4.4 10.5 11.8v35.6h18.1v-37.9c0-16.1-8.2-25.7-22.7-25.7zm75.4 1.2v8.5c2.7-6.2 9.4-9.8 17.7-9.9 1.3 0 2.9.1 4.8.3v17.3c-1.8-.3-3.9-.6-6-.6-10.4 0-16.4 5.9-16.4 16.2v30.4h-18.1V279h18zm73.5 8.2c-1.8-5.4-9-9.2-18.2-9.2-8.7 0-16 3.1-21.8 9.4-5.7 6.1-8.7 13.9-8.7 22.9 0 9 3 16.6 8.7 23 5.8 6.1 13.1 9.2 21.8 9.2 9.2 0 16.4-3.8 18.2-9.2v8.2h18.1v-86.1h-18.1v31.8zm-3.7 34.1c-3.1 3-6.8 4.4-11.3 4.4-4.3 0-8.1-1.5-11.1-4.4-3.1-3.1-4.6-6.8-4.6-11.1s1.5-8 4.6-11c3.1-3.1 6.7-4.6 11.1-4.6 4.6 0 8.3 1.5 11.3 4.6 3.2 3 4.8 6.7 4.8 11s-1.6 8-4.8 11.1zm74.2-41.9l16.4 29.6 11.1-29.8h17.8L577.2 345l-20-35.8-20 35.8-25.2-65.8h17.8l11 29.8 16.5-29.6zm75.1-1.7c-9.4 0-17.2 3-23.4 9-6 5.9-9.1 13.7-9.1 23.4v.6c0 9.7 3.1 17.6 9.1 23.4 6.3 5.8 14.3 8.8 24.3 8.8 9.4 0 17-1.8 22.8-5.7v-16.1c-5.7 4-13 6-21.8 6-9.6 0-15.9-4.7-16.2-12.1h45.1c.2-1.8.3-3.9.3-6 0-8.9-3-16.3-8.7-22.3-5.6-6-13.2-9-22.4-9zm-14.2 25.5c.1-2.9 1.6-5.3 4.3-7.3 2.9-2 6-3 9.9-3 7.2 0 12.8 4.7 12.8 10.3h-27zm88.6-25.2c8.7 0 16 3.1 21.7 9.4 5.8 6.2 8.8 13.7 8.8 22.7s-3 16.6-8.8 23c-5.7 6.1-13 9.2-21.7 9.2-9.2 0-16.4-3.8-18.2-9.2v8.2h-18.1v-86h18.1v32c1.8-5.5 9-9.3 18.2-9.3zm-3.3 47.7c4.3 0 8-1.4 11.1-4.4 3.1-3.1 4.6-6.8 4.6-11.1s-1.5-8-4.6-11c-3-3.1-6.7-4.6-11.1-4.6-4.4 0-8.2 1.5-11.4 4.6-3.1 3-4.7 6.7-4.7 11s1.6 8 4.7 11.1c3.1 2.9 6.8 4.4 11.4 4.4z" fill-rule="evenodd" clip-rule="evenodd" fill="#1d1d1b"/><defs><path id="prefix__SVGID_1_" d="M63.8 249.5h158.6v98.6H63.8z"/></defs><clipPath id="prefix__SVGID_00000055670500402312180990000000699977473301398718_"><use xlink:href="#prefix__SVGID_1_" overflow="visible"/></clipPath><g clip-path="url(#prefix__SVGID_00000055670500402312180990000000699977473301398718_)"><linearGradient id="prefix__SVGID_00000057839193954861663980000011971898509887572402_" gradientUnits="userSpaceOnUse" x1="133.65" y1="355.466" x2="243.22" y2="207.971" gradientTransform="matrix(1 0 0 -1 -20.945 604.362)"><stop offset="0" stop-color="#f213a4"/><stop offset="1" stop-color="#5204bf"/></linearGradient><path d="M64.2 257.8c-1.6-4 1.4-8.3 5.7-8.3h26.8c2.5 0 4.7 1.5 5.7 3.8l21.3 53.1c.6 1.4.6 3 0 4.5l-13.4 33.4c-2 5.1-9.3 5.1-11.4 0l-34.7-86.5zm51.7-.2c-1.4-4 1.5-8.1 5.7-8.1H145c2.6 0 4.9 1.6 5.7 4l19.4 53.1c.5 1.3.5 2.8 0 4.1l-11.6 31.9c-1.9 5.3-9.6 5.3-11.5 0l-31.1-85zm52.4-8.1c-4.3 0-7.3 4.3-5.7 8.3l34.7 86.5c2 5.1 9.3 5.1 11.4 0l13.4-33.4c.6-1.5.6-3.1 0-4.5l-21.3-53.1c-.9-2.3-3.2-3.8-5.7-3.8h-26.8z" fill-rule="evenodd" clip-rule="evenodd" fill="url(#prefix__SVGID_00000057839193954861663980000011971898509887572402_)"/></g></svg>