<svg version="1.0" xmlns="http://www.w3.org/2000/svg" viewBox="0 0 940 544"><path d="M470.8 230.7c-28.5 0-49 18.6-49 46.5s23.1 46.5 51.6 46.5c17.2 0 32.4-6.8 41.8-18.3L495.5 294c-5.2 5.7-13.1 9-22 9-12.4 0-22.9-6.5-26.8-16.8H519c.6-3 .9-6 .9-9 0-27.9-20.5-46.5-49.1-46.5zm-24.4 37.4c3.2-10.3 12.1-16.8 24.4-16.8s21.2 6.5 24.4 16.8h-48.8zm-5.8-65.8l-71.5 123.9-71.5-123.9h26.8l44.7 77.4 44.7-77.4h26.8zm-241.7-12.9l95.4 165.2H103.5l95.4-165.2zm424.7 87.8c0 15.5 10.1 25.8 25.8 25.8 10.6 0 18.6-4.8 22.7-12.7l19.9 11.4c-8.2 13.7-23.6 21.9-42.5 21.9-28.5 0-49-18.6-49-46.5s20.5-46.5 49-46.5c18.9 0 34.3 8.2 42.5 21.9l-19.8 11.4c-4.1-7.9-12.1-12.7-22.7-12.7-15.7.2-25.9 10.5-25.9 26zm212.9-74.9V321h-23.2V202.3h23.2zm-87.7 28.4c-28.5 0-49 18.6-49 46.5s23.1 46.5 51.6 46.5c17.2 0 32.4-6.8 41.8-18.3L773.5 294c-5.2 5.7-13.1 9-22 9-12.4 0-22.9-6.5-26.8-16.8H797c.6-3 .9-6 .9-9-.1-27.9-20.6-46.5-49.1-46.5zm-24.4 37.4c3.2-10.3 12-16.8 24.4-16.8s21.2 6.5 24.4 16.8h-48.8zm-131.7-34.8v25c-2.7-.8-5.5-1.2-8.3-1.3-15 0-25.8 10.3-25.8 25.8V321h-23.2v-87.7h23.2V257c0-13.1 15.2-23.7 34.1-23.7z"/><path fill="none" d="M80 168h780v208H80z"/></svg>